<svg width="24" height="16" xmlns="http://www.w3.org/2000/svg"><g id="Icons" stroke="none" stroke-width="1" fill="none" fill-rule="evenodd"><g id="Rounded" transform="translate(-406 -2284)"><g id="File" transform="translate(100 2226)"><g transform="translate(306 54)" id="-Round-/-File-/-cloud_done"><path id="Path" d="M0 0h24v24H0z"/><path d="M19.35 10.04A7.49 7.49 0 0 0 12 4C9.11 4 6.6 5.64 5.35 8.04A5.994 5.994 0 0 0 0 14c0 3.31 2.69 6 6 6h13c2.76 0 5-2.24 5-5 0-2.64-2.05-4.78-4.65-4.96Zm-8.64 6.25a.996.996 0 0 1-1.41 0L7.2 14.2a.996.996 0 1 1 1.41-1.41L10 14.18l4.48-4.48a.996.996 0 1 1 1.41 1.41l-5.18 5.18Z" id="🔹-Icon-Color" fill="#1D1D1D"/></g></g></g></g></svg>